<svg width="1018" height="295" viewBox="0 0 1018 295" fill="none" xmlns="http://www.w3.org/2000/svg">
<g clip-path="url(#clip0)">
<rect width="1018" height="295" fill="white"/>
<path d="M199.25 124.5C214.083 124.5 227.667 131.083 240 144.25C252.5 157.417 258.75 172.75 258.75 190.25C258.75 207.583 252.583 222.833 240.25 236C227.917 249 214.667 255.5 200.5 255.5C186.333 255.5 176.25 251.5 170.25 243.5C168.917 251.667 161.75 255.75 148.75 255.75C138.25 255.75 131.833 253.5 129.5 249C128.333 246.5 127.583 244.333 127.25 242.5C127.083 240.5 127 237.583 127 233.75V84.5C127 80.6667 127.083 77.8333 127.25 76C127.583 74 128.333 71.8333 129.5 69.5C131.833 65 138.333 62.75 149 62.75C159.5 62.75 165.833 65 168 69.5C169.333 72 170.083 74.25 170.25 76.25C170.583 78.0833 170.75 80.9167 170.75 84.75V136.75C177.417 128.583 186.917 124.5 199.25 124.5ZM177.25 205.25C181.417 209.75 186.583 212 192.75 212C198.917 212 204.167 209.75 208.5 205.25C212.833 200.75 215 195.75 215 190.25C215 184.75 213 179.75 209 175.25C205 170.583 199.667 168.25 193 168.25C186.333 168.25 181 170.583 177 175.25C173.167 179.917 171.25 185 171.25 190.5C171.25 195.833 173.25 200.75 177.25 205.25ZM389.449 208L393.949 204.75C399.616 201.417 403.616 199.75 405.949 199.75C411.116 199.75 416.699 204.417 422.699 213.75C426.366 219.583 428.199 224.25 428.199 227.75C428.199 231.25 427.033 234.167 424.699 236.5C422.533 238.833 419.949 240.917 416.949 242.75C413.949 244.583 411.033 246.333 408.199 248C405.533 249.667 399.949 251.833 391.449 254.5C382.949 257.167 374.699 258.5 366.699 258.5C358.866 258.5 350.866 257.5 342.699 255.5C334.699 253.333 326.366 249.833 317.699 245C309.199 240 301.533 234 294.699 227C287.866 219.833 282.199 210.75 277.699 199.75C273.366 188.583 271.199 176.5 271.199 163.5C271.199 150.5 273.366 138.75 277.699 128.25C282.033 117.583 287.533 108.833 294.199 102C301.033 95 308.783 89.1667 317.449 84.5C333.783 75.5 350.199 71 366.699 71C374.533 71 382.449 72.25 390.449 74.75C398.616 77.0833 404.783 79.5 408.949 82L414.949 85.5C417.949 87.3333 420.283 88.8333 421.949 90C426.283 93.5 428.449 97.5 428.449 102C428.449 106.333 426.699 110.917 423.199 115.75C416.699 124.75 410.866 129.25 405.699 129.25C402.699 129.25 398.449 127.417 392.949 123.75C385.949 118.083 376.616 115.25 364.949 115.25C354.116 115.25 343.449 119 332.949 126.5C327.949 130.167 323.783 135.333 320.449 142C317.116 148.667 315.449 156.25 315.449 164.75C315.449 173.083 317.116 180.583 320.449 187.25C323.783 193.917 328.033 199.167 333.199 203C343.366 210.333 353.949 214 364.949 214C370.116 214 374.949 213.333 379.449 212C384.116 210.667 387.449 209.333 389.449 208ZM440.877 190.25C440.877 170.25 447.877 153.75 461.877 140.75C475.877 127.75 491.877 121.25 509.877 121.25C527.877 121.25 543.794 127.75 557.627 140.75C571.46 153.583 578.377 170 578.377 190C578.377 203.833 574.794 216.167 567.627 227C560.46 237.667 551.71 245.583 541.377 250.75C531.21 255.75 520.627 258.25 509.627 258.25C498.627 258.25 487.96 255.583 477.627 250.25C467.294 244.75 458.544 236.75 451.377 226.25C444.377 215.583 440.877 203.583 440.877 190.25ZM493.127 208.25C498.46 212.25 503.877 214.25 509.377 214.25C514.877 214.25 520.377 212.167 525.877 208C531.377 203.833 534.127 197.667 534.127 189.5C534.127 181.333 531.544 175.25 526.377 171.25C521.21 167.25 515.627 165.25 509.627 165.25C503.627 165.25 498.044 167.333 492.877 171.5C487.71 175.667 485.127 181.833 485.127 190C485.127 198 487.794 204.083 493.127 208.25ZM590.779 190.25C590.779 170.25 597.779 153.75 611.779 140.75C625.779 127.75 641.779 121.25 659.779 121.25C677.779 121.25 693.696 127.75 707.529 140.75C721.363 153.583 728.279 170 728.279 190C728.279 203.833 724.696 216.167 717.529 227C710.363 237.667 701.613 245.583 691.279 250.75C681.113 255.75 670.529 258.25 659.529 258.25C648.529 258.25 637.863 255.583 627.529 250.25C617.196 244.75 608.446 236.75 601.279 226.25C594.279 215.583 590.779 203.583 590.779 190.25ZM643.029 208.25C648.363 212.25 653.779 214.25 659.279 214.25C664.779 214.25 670.279 212.167 675.779 208C681.279 203.833 684.029 197.667 684.029 189.5C684.029 181.333 681.446 175.25 676.279 171.25C671.113 167.25 665.529 165.25 659.529 165.25C653.529 165.25 647.946 167.333 642.779 171.5C637.613 175.667 635.029 181.833 635.029 190C635.029 198 637.696 204.083 643.029 208.25ZM744.432 84.25C744.432 80.4167 744.515 77.5833 744.682 75.75C745.015 73.75 745.765 71.5 746.932 69C749.265 64.5 755.765 62.25 766.432 62.25C776.598 62.25 782.932 64.5 785.432 69C786.765 71.5 787.515 73.75 787.682 75.75C788.015 77.75 788.182 80.6667 788.182 84.5V200.25C788.182 206.25 788.682 210.083 789.682 211.75C790.682 213.25 792.848 214 796.182 214C799.682 214 802.015 214.167 803.182 214.5C804.348 214.667 805.765 215.333 807.432 216.5C810.765 218.667 812.432 224.583 812.432 234.25C812.432 244.75 810.765 251.167 807.432 253.5C803.098 256.5 792.765 257 776.432 255C763.598 253.333 755.265 249.083 751.432 242.25C746.765 234.083 744.432 221.083 744.432 203.25V84.25Z" fill="url(#paint0_linear)"/>
</g>
<defs>
<linearGradient id="paint0_linear" x1="626" y1="12" x2="626" y2="260" gradientUnits="userSpaceOnUse">
<stop offset="0.9998" stop-color="#FFD910
"/>
<stop offset="0.9999" stop-color="#0C0700
" stop-opacity="0.046875"/>
<stop offset="1" stop-opacity="0"/>
</linearGradient>
<clipPath id="clip0">
<rect width="1018" height="295" fill="white"/>
</clipPath>
</defs>
</svg>